<svg xmlns="http://www.w3.org/2000/svg"  viewBox="0 0 64 64" width="64px" height="64px"><radialGradient id="eAbHh8fm1KX6ThUfS4Sdpa" cx="36" cy="6361" r="26.875" gradientTransform="translate(0 -6326)" gradientUnits="userSpaceOnUse"><stop offset="0" stop-color="#f4e9c3"/><stop offset=".219" stop-color="#f8eecd"/><stop offset=".644" stop-color="#fdf4dc"/><stop offset="1" stop-color="#fff6e1"/></radialGradient><path fill="url(#eAbHh8fm1KX6ThUfS4Sdpa)" d="M5.5,64L5.5,64C3.015,64,1,61.985,1,59.5l0,0C1,57.015,3.015,55,5.5,55l0,0	c2.485,0,4.5,2.015,4.5,4.5l0,0C10,61.985,7.985,64,5.5,64z"/><radialGradient id="eAbHh8fm1KX6ThUfS4Sdpb" cx="-1268" cy="776.793" r="31.504" gradientTransform="matrix(-1 0 0 .8936 -1236 -661.142)" gradientUnits="userSpaceOnUse"><stop offset="0" stop-color="#f4e9c3"/><stop offset=".219" stop-color="#f8eecd"/><stop offset=".644" stop-color="#fdf4dc"/><stop offset="1" stop-color="#fff6e1"/></radialGradient><path fill="url(#eAbHh8fm1KX6ThUfS4Sdpb)" d="M60,38H50c-1.94,0-3.68-0.78-4.95-2.05S43,32.94,43,31c0-0.34,0.03-0.67,0.08-1H53v-6h6.5	c1.24,0,2.37-0.5,3.18-1.32c0.76-0.75,1.24-1.76,1.31-2.89C64,19.69,64,19.6,64,19.5c0-1.24-0.5-2.37-1.32-3.18	C61.87,15.5,60.74,15,59.5,15c-0.1,0-0.19,0-0.29,0.01C59.14,15,59.07,15,59,15h-8.4c-0.83,0-1.58-0.34-2.12-0.88	c-0.54-0.54-0.88-1.29-0.88-2.12c0-0.56,0.16-1.09,0.43-1.54C48.55,9.58,49.5,9,50.6,9h3.96C56.48,9,58,7.48,58,5.61V5.5	C58,3.57,56.43,2,54.5,2h-47C5.57,2,4.01,3.56,4,5.48V5.5C3.99,7.43,5.55,9,7.48,9h6.02c1.38,0,2.5,1.12,2.5,2.5	c0,0.69-0.28,1.32-0.73,1.77C14.82,13.72,14.19,14,13.5,14h-1.86c-0.2,0.01-0.4,0.01-0.62,0.01C10.7,14.01,10.35,14,10,14H5	c-1.38,0-2.63,0.56-3.54,1.46C0.56,16.37,0,17.62,0,19c0,2.76,2.24,5,5,5h4c1.66,0,2.52,2.71,2.85,5H13v7H5c-1.13,0-2.17,0.37-3,1	c-0.19,0.14-0.37,0.29-0.54,0.46c-0.85,0.86-1.39,2.01-1.45,3.3C0,40.84,0,40.92,0,41c0,2.76,2.24,5,5,5h0.5H14h8c1.66,0,3,1.34,3,3	c0,0.83-0.34,4.58-0.88,5.12C23.58,54.66,22.83,55,22,55h-1.5c-2.48,0-4.5,2.01-4.5,4.5c0,1.24,0.5,2.37,1.32,3.18	C18.14,63.5,19.26,64,20.5,64H55c2.21,0,4-1.79,4-4c0-1.1-0.45-2.1-1.17-2.83C57.1,56.45,56.1,56,55,56h-0.5	c-1.93,0-3.5-1.57-3.5-3.5c0-0.96,0.39-4.84,1.03-5.47C52.66,46.39,53.54,46,54.5,46H60c2.21,0,4-1.79,4-4c0-1.1-0.45-2.1-1.17-2.83	C62.1,38.45,61.1,38,60,38z"/><linearGradient id="eAbHh8fm1KX6ThUfS4Sdpc" x1="48.801" x2="48.801" y1="1.777" y2="56.568" gradientTransform="matrix(1 0 0 -1 0 66)" gradientUnits="userSpaceOnUse"><stop offset="0" stop-color="#5ec9ef"/><stop offset=".495" stop-color="#7ad7f5"/><stop offset="1" stop-color="#9ae8fc"/></linearGradient><path fill="url(#eAbHh8fm1KX6ThUfS4Sdpc)" d="M44.565,28.247c-0.156,0.027-0.141,0.042-0.122,0.052c0.005,0.014,0.013,0.029,0.05,0.035	c0.062,0.014,0.11,0.043,0.192,0.049c0.148,0.029,0.31,0.043,0.482,0.052c0.342,0.022,0.688-0.001,1.04-0.029	c0.696-0.074,1.341-0.254,1.946-0.548c0.598-0.302,1.213-0.693,1.712-1.329c0.553-0.589,0.964-1.421,1.368-2.332l0.347-0.782	c0.916-2.064,3.307-2.984,5.341-2.054c1.577,0.721,2.474,2.35,2.372,4.005c-0.054,0.842-0.067,1.692-0.197,2.563	c-0.169,0.873-0.286,1.763-0.61,2.648c-0.519,1.787-1.477,3.549-2.693,5.108c-1.223,1.566-2.742,2.908-4.396,3.942	c-0.83,0.509-1.689,0.975-2.593,1.36c-0.45,0.194-0.914,0.377-1.401,0.538c-0.233,0.085-0.505,0.158-0.762,0.233	c-0.122,0.037-0.275,0.074-0.43,0.109c-0.142,0.033-0.288,0.07-0.605,0.111c-3.736,0.292-6.998-2.546-7.285-6.338	C38.033,31.849,40.829,28.539,44.565,28.247z"/><linearGradient id="eAbHh8fm1KX6ThUfS4Sdpd" x1="-1905.199" x2="-1905.199" y1="1.777" y2="56.568" gradientTransform="rotate(180 -945 33)" gradientUnits="userSpaceOnUse"><stop offset="0" stop-color="#5ec9ef"/><stop offset=".495" stop-color="#7ad7f5"/><stop offset="1" stop-color="#9ae8fc"/></linearGradient><path fill="url(#eAbHh8fm1KX6ThUfS4Sdpd)" d="M19.435,28.247c0.156,0.027,0.141,0.042,0.122,0.052c-0.005,0.014-0.013,0.029-0.05,0.035	c-0.062,0.014-0.11,0.043-0.192,0.049c-0.148,0.029-0.31,0.043-0.482,0.052c-0.342,0.022-0.688-0.001-1.04-0.029	c-0.696-0.074-1.341-0.254-1.946-0.548c-0.598-0.302-1.213-0.693-1.712-1.329c-0.553-0.589-0.964-1.421-1.368-2.332l-0.347-0.782	c-0.916-2.064-3.307-2.984-5.341-2.054c-1.577,0.721-2.474,2.35-2.372,4.005c0.054,0.842,0.067,1.692,0.197,2.563	c0.169,0.873,0.286,1.763,0.61,2.648c0.519,1.787,1.477,3.549,2.693,5.108c1.223,1.566,2.742,2.908,4.396,3.942	c0.83,0.509,1.689,0.975,2.593,1.36c0.45,0.194,0.914,0.377,1.401,0.538c0.233,0.085,0.505,0.158,0.762,0.233	c0.122,0.037,0.275,0.074,0.43,0.109c0.142,0.033,0.288,0.07,0.605,0.111c3.736,0.292,6.998-2.546,7.285-6.338	C25.967,31.849,23.171,28.539,19.435,28.247z"/><linearGradient id="eAbHh8fm1KX6ThUfS4Sdpe" x1="32.004" x2="32.004" y1="8.834" y2="57.368" gradientTransform="matrix(1 0 0 -1 0 66)" gradientUnits="userSpaceOnUse"><stop offset="0" stop-color="#5ec9ef"/><stop offset=".495" stop-color="#7ad7f5"/><stop offset="1" stop-color="#9ae8fc"/></linearGradient><path fill="url(#eAbHh8fm1KX6ThUfS4Sdpe)" d="M51.16,54.72c-1.2,0-2.19-0.14-3-0.35c-1.58-0.41-3.26-0.06-4.52,0.99	C42.21,56.55,39.9,57,37.81,57c-1.37,0-2.52-0.22-3.44-0.7c-1.44-0.75-3.17-0.94-4.6-0.21C28.55,56.71,27,57,25.46,57	c-2.06,0-3.91-0.43-5.03-1.53c-0.21-0.21-0.45-0.4-0.7-0.56h-0.01c-0.37-0.25-0.78-0.43-1.2-0.56c-0.95-0.3-2-0.3-3-0.04	c-0.96,0.24-2.1,0.41-3.43,0.41c-3.78,0-4.68-3.2-2.05-7.95c0.79-1.41,1.58-3.31,2.34-5.77c0.03-0.11,0.07-0.22,0.1-0.33	c1.25-4.12,2.38-9.72,3.11-17.04C16.52,14.43,22.22,7,32.12,7c9.66,0,15.6,7.43,16.53,16.63c1.21,11.94,3.49,19.34,5.61,23.14	C56.89,51.52,54.96,54.72,51.16,54.72z"/><circle cx="24.5" cy="25.5" r="4.5" fill="#717171"/><path fill="#717171" d="M37,34.757C37,37.101,34.761,39,32,39s-5-1.899-5-4.243C27,32.414,37,32.414,37,34.757z"/><circle cx="39.5" cy="25.5" r="4.5" fill="#717171"/><linearGradient id="eAbHh8fm1KX6ThUfS4Sdpf" x1="-77.709" x2="-75.187" y1="5859.54" y2="5859.54" gradientTransform="matrix(1.1895 -.0011 .0011 1.1899 122.984 -6947.851)" gradientUnits="userSpaceOnUse"><stop offset="0" stop-color="#ffe79f"/><stop offset=".258" stop-color="#ffe9a7"/><stop offset=".66" stop-color="#ffefbd"/><stop offset="1" stop-color="#fff5d5"/></linearGradient><path fill="url(#eAbHh8fm1KX6ThUfS4Sdpf)" d="M40,24.499C40.001,25.327,39.33,26,38.502,26c-0.828,0.001-1.501-0.671-1.501-1.499	C37,23.673,37.671,23,38.499,23C39.327,22.999,40,23.67,40,24.499z"/><linearGradient id="eAbHh8fm1KX6ThUfS4Sdpg" x1="-90.318" x2="-87.797" y1="5859.528" y2="5859.528" gradientTransform="matrix(1.1895 -.0011 .0011 1.1899 122.984 -6947.851)" gradientUnits="userSpaceOnUse"><stop offset="0" stop-color="#ffe79f"/><stop offset=".258" stop-color="#ffe9a7"/><stop offset=".66" stop-color="#ffefbd"/><stop offset="1" stop-color="#fff5d5"/></linearGradient><path fill="url(#eAbHh8fm1KX6ThUfS4Sdpg)" d="M25,24.499C25.001,25.327,24.33,26,23.502,26c-0.828,0.001-1.501-0.671-1.501-1.499	C22,23.673,22.671,23,23.499,23C24.327,22.999,25,23.67,25,24.499z"/><linearGradient id="eAbHh8fm1KX6ThUfS4Sdph" x1="15.268" x2="15.268" y1="-7.734" y2="34.237" gradientTransform="matrix(1 0 0 -1 0 66)" gradientUnits="userSpaceOnUse"><stop offset="0" stop-color="#5ec9ef"/><stop offset=".495" stop-color="#7ad7f5"/><stop offset="1" stop-color="#9ae8fc"/></linearGradient><path fill="url(#eAbHh8fm1KX6ThUfS4Sdph)" d="M22,52c0,0.03-0.01,0.07-0.01,0.1c0,0.14-0.02,0.29-0.04,0.42c-0.01,0.04-0.01,0.08-0.02,0.12	c-0.04,0.18-0.09,0.35-0.16,0.51c-0.01,0.03-0.03,0.05-0.04,0.08c-0.06,0.13-0.12,0.25-0.2,0.37c-0.03,0.05-0.06,0.1-0.1,0.14	c-0.07,0.1-0.14,0.19-0.22,0.28c-0.07,0.07-0.14,0.14-0.21,0.2s-0.14,0.13-0.21,0.18c-0.31,0.23-0.67,0.41-1.06,0.51h-0.01	c-0.37-0.25-0.78-0.43-1.2-0.56c-0.95-0.3-2-0.3-3-0.04c-0.96,0.24-2.1,0.41-3.43,0.41c-3.78,0-4.68-3.2-2.05-7.95	c0.79-1.41,1.58-3.31,2.34-5.77H18c1.21,0,2.18,1.08,1.97,2.34C19.81,44.32,18.89,45,17.89,45C16.85,45,16,45.85,16,46.89V47	c0,1.1,0.9,2,2,2h1c0.89,0,1.68,0.4,2.23,1.01c0.01,0.01,0.02,0.02,0.03,0.03c0.1,0.12,0.19,0.23,0.27,0.36	c0.05,0.08,0.09,0.17,0.14,0.26c0.03,0.07,0.07,0.13,0.1,0.2c0.05,0.12,0.09,0.25,0.12,0.38c0.02,0.06,0.04,0.12,0.05,0.19	c0.04,0.17,0.05,0.34,0.05,0.51C21.99,51.96,22,51.98,22,52z"/></svg>