<svg height="600.97" viewBox="0 0 433.273 600.97" width="433.273" xmlns="http://www.w3.org/2000/svg"><path d="m111.713 145s-2-17 5-29 11-12 13-22 0-15 0-18c-9-2-14-11-15-14-15 8-34 13-56 15s-51 0-55-2c-3.225-1.612-8-12 4-16s44-12 62-24 46-35 60-35c18.111 0 52 11 93 27s84 58 109 88-220 30-220 30z" fill="#04294f"/><path d="m213.792 34.347c-1.45 35.223 8.594 38.88 30.116 46.717 1.708-27.004-.573-31.897-30.116-46.717z" fill="#00aee0"/><path d="m195.5 87.207c27.9 16.956 35.366 10.453 51.361-3.481-21.123-13.483-26.111-13.826-51.361 3.481z" fill="#00aee0"/><path d="m242.713 110c-8.515-8.515-16.475-35.4 4-48 13-8 36-13 46-10 16.056 4.817 27 14 27 29s-3 26-22 31-49 4-55-2z" fill="#f04e23"/><path d="m1.023 247c-6.51-34.447 22.865-82.263 154.023-121.954s235.67-52 269.806-10.673c21.026 25.455 11.257 103.563-130.482 151.8s-279.664 53.227-293.347-19.173z" fill="#04294f"/><path d="m279.448 79.9c-.194-.1-.237-.634.215-1.493a6.5 6.5 0 0 1 3.178-2.68 11.092 11.092 0 0 1 6.566-.659 10.683 10.683 0 0 1 4.052 1.686 7.77 7.77 0 0 1 3.172 4.555 8.461 8.461 0 0 1 -1 6.066 14.449 14.449 0 0 1 -3.9 4.367 37.615 37.615 0 0 1 -9.914 5.709 24.724 24.724 0 0 1 -6.368 1.464 21.587 21.587 0 0 1 -6.989-.513 13.5 13.5 0 0 1 -1.891-.583 14.369 14.369 0 0 1 -1.9-.929 12.709 12.709 0 0 1 -3.189-2.814 15.088 15.088 0 0 1 -3.143-7.462 20.5 20.5 0 0 1 .358-7.575q.24-.882.48-1.76l.6-1.692c.236-.571.525-1.154.793-1.722.287-.562.639-1.082.961-1.616a20.373 20.373 0 0 1 4.94-5.063 30.241 30.241 0 0 1 5.554-3.167 54.048 54.048 0 0 1 10.677-3.254c.812-.175 1.695-.334 2.571-.471.856-.111 1.692-.211 2.5-.266 1.62-.126 3.153-.168 4.608-.158a72.184 72.184 0 0 1 13.562 1.316c3.151.656 4.831 1.353 4.771 1.814-.062.479-1.836.683-4.972.853-3.131.192-7.665.3-13.12.869-1.361.141-2.774.324-4.208.569-.722.115-1.434.266-2.155.419-.693.171-1.4.353-2.2.587a56.082 56.082 0 0 0 -9.358 3.46 18.636 18.636 0 0 0 -7.542 6.181c-.184.344-.41.668-.578 1.02-.151.366-.321.7-.475 1.085l-.421 1.24-.328 1.264a14.193 14.193 0 0 0 -.227 5.078 8.538 8.538 0 0 0 1.665 4.162 6.035 6.035 0 0 0 1.435 1.324 8.207 8.207 0 0 0 .853.431 6.691 6.691 0 0 0 1.019.334 16.983 16.983 0 0 0 9.652-.409 35.051 35.051 0 0 0 8.63-4.335 9.609 9.609 0 0 0 2.709-2.49 3.619 3.619 0 0 0 .77-2.392 3.242 3.242 0 0 0 -1.1-2.052 7.18 7.18 0 0 0 -2.36-1.419 9.554 9.554 0 0 0 -4.77-.5c-2.708.398-3.731 1.875-4.183 1.621z" fill="#04294f"/><path d="m133.565 36.756c.383.607-.717 2.021-2.674 3.848s-4.721 4.082-7.262 6.8a31.96 31.96 0 0 0 -3.192 4.047 28.366 28.366 0 0 0 -2.056 3.674c-1.036 2.19-1.484 3.817-2.228 3.861a.664.664 0 0 1 -.522-.289 2.757 2.757 0 0 1 -.477-.915 8.762 8.762 0 0 1 -.306-3.547 15.422 15.422 0 0 1 1.425-5.066 20.718 20.718 0 0 1 3.583-5.273 27.838 27.838 0 0 1 9.039-6.338c2.547-1.1 4.295-1.398 4.67-.802z" fill="#00aee0"/><path d="m147.213 64.5c.531.456.369 1.678-.536 3.255a12.5 12.5 0 0 1 -1.956 2.506 15.559 15.559 0 0 1 -3.119 2.407 15.9 15.9 0 0 1 -3.602 1.532 13.04 13.04 0 0 1 -3.106.51c-1.8.053-2.954-.355-3.119-1.038-.17-.7.679-1.546 2.056-2.446.682-.461 1.507-.919 2.382-1.425.859-.488 1.8-1.023 2.8-1.585l2.732-1.651c.859-.512 1.643-1.011 2.365-1.39 1.42-.775 2.556-1.146 3.103-.675z" fill="#00aee0"/><path d="m232.213 105.5c.051.352-1.6.951-4.624 1.731l-5.515 1.342-7.308 1.682-8.843 2.047c-3.179.726-6.562 1.555-10.123 2.421s-7.287 1.815-11.143 2.819l-5.879 1.548-6.032 1.665c-2.043.543-4.037 1.159-6.018 1.716s-3.926 1.13-5.829 1.714c-3.824 1.122-7.484 2.289-10.981 3.377-3.479 1.137-6.8 2.179-9.882 3.235-3.087 1.039-5.967 2-8.578 2.93l-3.743 1.286-3.329 1.179-5.366 1.829c-2.96.98-4.674 1.373-4.823 1.049s1.284-1.332 4.014-2.885c1.359-.79 3.061-1.672 5.06-2.649l3.207-1.558 3.643-1.641c2.552-1.156 5.387-2.326 8.444-3.552 3.051-1.243 6.356-2.447 9.834-3.721 3.493-1.225 7.166-2.5 11.011-3.7q2.874-.936 5.873-1.809c2-.58 4.013-1.211 6.076-1.76l6.106-1.657 5.96-1.488c3.913-.949 7.7-1.8 11.326-2.554s7.072-1.427 10.316-1.977c3.235-.591 6.268-1.04 9.035-1.444 2.764-.422 5.284-.689 7.491-.939s4.119-.4 5.685-.483c3.132-.177 4.884-.105 4.935.247z" fill="#00aee0"/><path d="m142.713 176.952s-13 11.048-17 37.048c-3.55 23.074-5 43-20 55s-57 32-60 61 21 72 11 86c-8.142 11.4-20.924 12.854-28.631 3.286a1.451 1.451 0 0 0 -2.52 1.319c7.038 24.381 30.094 36.889 45.151 38.395 40 4 97-20 98-22s172 0 173 2 22 15 44 12c20.828-2.84 37.175-16.436 44.8-39.09a2.341 2.341 0 0 0 -2.663-3.026c-23.979 4.5-40.782-10.94-34.134-30.884 7-21 10.045-47.909-1-70-11-22-41-28-49-50s-5-47-5-47l-71-56-90.116 8.148-34.887 13.8" fill="#f04e23"/><path d="m80.713 391c0 1 0 49 15 97s21 79 38 95c25.766 24.251 140 23 161 2 21.552-21.552 33-36 46-83s16.591-92.864 14.3-107.932-66.3 10.932-66.3 10.932l-26-24s-85-7-98-1-53 13-53 14-31-3-31-3z" fill="#04294f"/><path d="m188.873 410.08c-.98 5.24-11.85 7.97-27.43 7.77a175.47 175.47 0 0 1 -29.39-3.11c-5.39-1.01-10.56-2.2-15.4-3.52-21.96-5.98-37.17-14.65-35.92-21.32 1.38-7.41 22.59-9.81 48.9-5.97q3.9.555 7.92 1.31a167.418 167.418 0 0 1 32.5 9.26c12.27 5.08 19.71 10.84 18.82 15.58z" fill="#00aee0"/><path d="m325.093 411.59a188.891 188.891 0 0 1 -21.65 5.17 184.685 184.685 0 0 1 -21.83 2.64c-19.55 1.15-33.87-1.66-34.95-7.72-1-5.57 9.44-12.44 25.7-17.94a179.871 179.871 0 0 1 25.8-6.51c5.19-.93 10.25-1.63 15.07-2.11 22.94-2.28 40.5.44 41.71 7.18 1.08 6.03-11.25 13.59-29.85 19.29z" fill="#00aee0"/><path d="m174.213 595.5c-.168-.325 2.042-1.773 5.77-4.67a78.241 78.241 0 0 0 6.469-5.574 42.443 42.443 0 0 0 6.979-8.555 22.968 22.968 0 0 0 1.424-2.709c.205-.475.447-.939.632-1.434s.35-1 .527-1.512a38.759 38.759 0 0 0 1.341-6.729 61.913 61.913 0 0 0 .4-7.5c0-2.6-.1-5.291-.322-8.055-.834-11.062-3.04-23.2-5.548-35.941-1.25-6.376-2.527-12.608-3.6-18.706-.541-3.024-1.015-6.145-1.284-9.13-.289-3-.471-5.916-.6-8.763-.477-11.384-.215-21.58.136-30.134.372-8.552.906-15.456 1.41-20.217.253-2.381.5-4.226.728-5.474.062-.311.118-.585.165-.822.029-.117.055-.226.079-.324.013-.049.026-.1.038-.14l.018-.062.009-.025c-.034.049.114.073.176.045a.244.244 0 0 0 .09-.056.06.06 0 0 0 .014.1c.074.031.152-.028.186-.047.05-.035.08-.007.062-.015-.111.285-.21.464-.3.451s-.168-.164-.223-.52c0-.01-.006.019.006-.038a.271.271 0 0 1 .227-.2c.291.04.207.1.26.127a.3.3 0 0 1 .041.141v.011l.007.039.014.069.026.146.05.333q.048.362.088.835c.108 1.263.184 3.119.239 5.508.112 4.776.134 11.677.229 20.192.115 8.509.235 18.653.961 29.81.19 2.786.425 5.634.753 8.513.313 2.9.786 5.736 1.358 8.75 1.119 5.986 2.43 12.2 3.685 18.608 2.519 12.8 4.629 25.16 5.231 36.638.159 2.867.193 5.681.113 8.424a62.53 62.53 0 0 1 -.691 8 41.078 41.078 0 0 1 -1.807 7.425l-.692 1.725c-.241.563-.543 1.092-.809 1.628a25.532 25.532 0 0 1 -1.782 3 41.672 41.672 0 0 1 -8.127 8.738 56.768 56.768 0 0 1 -7.261 5.084c-4.177 2.458-6.742 3.32-6.895 3.012z" fill="#00aee0"/><path d="m263.213 594.5c-.025.176-.7.226-2 .152a21.892 21.892 0 0 1 -5.55-1.26 24.289 24.289 0 0 1 -7.746-4.847 29.948 29.948 0 0 1 -6.881-9.994 42.747 42.747 0 0 1 -2.208-6.681c-.166-.59-.267-1.2-.4-1.8a13.47 13.47 0 0 1 -.312-1.917 20.486 20.486 0 0 1 -.13-2.074q.018-.981.035-1.979c.231-5.235 1.007-10.56 1.8-16.2 1.627-11.247 3.656-23.511 5.459-36.415.9-6.45 1.723-12.751 2.379-18.843q.247-2.284.489-4.528.207-2.244.41-4.443c.146-1.469.271-2.917.352-4.339s.22-2.83.256-4.232c.5-11.184.2-21.349-.111-29.873-.7-17.06-1.574-27.629-.845-27.723.68-.094 2.837 10.345 4.481 27.482a266.38 266.38 0 0 1 1.22 30.285c0 1.432-.112 2.888-.17 4.358s-.156 2.953-.278 4.437-.229 2.993-.346 4.512q-.216 2.272-.437 4.588c-.595 6.172-1.389 12.536-2.3 19.035-1.816 13-4 25.287-5.87 36.426-.912 5.556-1.835 10.881-2.221 15.707q-.051.889-.1 1.764c-.049.6.032 1.064.032 1.6a10.508 10.508 0 0 0 .2 1.654c.094.563.16 1.128.289 1.671a41.429 41.429 0 0 0 1.7 6.17 28.592 28.592 0 0 0 5.544 9.326 25.075 25.075 0 0 0 6.523 5.048c4.137 2.053 6.817 2.498 6.736 2.933z" fill="#00aee0"/><path d="m154.713 324c14.785 25.452 49.269 44 69.6 42s51.4-15 67.4-37c13.222-18.181-3-37 6-149 1.729-21.517-47.209-36-84-29s-80.9 36.491-75 70c5.809 33 1.477 78 16 103z" fill="#ffb400"/><ellipse cx="215.946" cy="253.104" fill="#04294f" rx="8.204" ry="15.857"/><path d="m284.713 225.391c-.442.591-2.164.008-4.666-.862a29.524 29.524 0 0 0 -9.541-1.934 37.751 37.751 0 0 0 -9.782 1.422c-.647.174-1.247.314-1.791.417a13.767 13.767 0 0 1 -1.417.266c-.816.093-1.365.007-1.544-.3s.029-.807.583-1.46a9.863 9.863 0 0 1 1.085-1.08c.46-.367 1-.762 1.619-1.178a23.931 23.931 0 0 1 2.132-1.19 25.154 25.154 0 0 1 2.636-1.055 20.637 20.637 0 0 1 6.563-.994 18.4 18.4 0 0 1 6.571 1.279 18.068 18.068 0 0 1 4.65 2.62c2.363 1.867 3.313 3.508 2.902 4.049z" fill="#04294f"/><path d="m229.029 226.352c-.53.55-2.207-.312-4.826-1.12a25.791 25.791 0 0 0 -10.358-1.127 25.216 25.216 0 0 0 -9.894 3.1c-.637.292-1.114.689-1.628.951s-.912.553-1.284.759c-.74.415-1.309.571-1.6.363s-.266-.77.064-1.656a5.989 5.989 0 0 1 .779-1.5 11.538 11.538 0 0 1 1.391-1.761 14.231 14.231 0 0 1 2.055-1.8c.4-.285.816-.593 1.262-.875l1.433-.766a19.765 19.765 0 0 1 6.937-1.94 21.348 21.348 0 0 1 7.16.571 17.144 17.144 0 0 1 5.323 2.434 9.759 9.759 0 0 1 1.726 1.438c.235.233.445.455.632.663.174.228.318.451.443.652.5.807.629 1.355.385 1.614z" fill="#04294f"/><path d="m244.132 302.269c.509.385-.358 2.938-3.458 5.966a19.078 19.078 0 0 1 -6.49 4.13 15.534 15.534 0 0 1 -9.9.539 12.533 12.533 0 0 1 -4.785-2.637 12.385 12.385 0 0 1 -3.008-4.087 14.662 14.662 0 0 1 -1.113-4.264 16.389 16.389 0 0 1 .1-3.66 14.55 14.55 0 0 1 1.531-4.839c.611-1.036 1.1-1.529 1.442-1.422.753.215.361 2.752.669 6.386a19.5 19.5 0 0 0 .474 2.833 13.157 13.157 0 0 0 1.144 2.839 8.5 8.5 0 0 0 5.011 3.91 12.816 12.816 0 0 0 6.951-.108 22.856 22.856 0 0 0 5.75-2.5c3.196-1.901 5.086-3.573 5.682-3.086z" fill="#04294f"/><ellipse cx="269.023" cy="253.104" fill="#04294f" rx="7.94" ry="15.857"/><path d="m325.093 411.59a188.891 188.891 0 0 1 -21.65 5.17 184.685 184.685 0 0 1 -21.83 2.64c-.39-5.18-2.17-21.41-9.25-25.66-.52-.32-1.049-.8-1.65-.74a324.466 324.466 0 0 1 -55 0c-20.03-1.669-37-5-43-1a11.989 11.989 0 0 0 -2.66 2.5c-5.27 6.44-7.61 19.12-8.34 22.5a4.2 4.2 0 0 1 -.27.85 175.47 175.47 0 0 1 -29.39-3.11c-5.39-1.01-10.56-2.2-15.4-3.52a1.8 1.8 0 0 1 .06-.22s5.57-13.61 12.92-27.07c5.87-10.74 10.734-21.178 16.08-25.93 9-8 35-3 35-3s27 5 41 5 54.72-9 62-9c10 0 15 3 23 20 2.05 4.36 4.31 9.26 6.52 14.12 5.18 11.39 10.15 22.61 11.86 26.47z" fill="#ffb400"/><path d="m262.213 353.5c.119.346-.76 1-2.4 1.973s-4.04 2.3-7.161 3.795c-1.559.746-3.314 1.507-5.25 2.227a57.73 57.73 0 0 1 -6.332 1.933 59.339 59.339 0 0 1 -7.221 1.231 73.281 73.281 0 0 1 -7.81.417 123.54 123.54 0 0 1 -14.838-.821c-2.281-.286-4.443-.639-6.452-1.059s-3.866-.9-5.537-1.421a46.956 46.956 0 0 1 -4.436-1.619l-1.762-.806q-.8-.417-1.435-.781a11.086 11.086 0 0 1 -1.871-1.293c-.4-.353-.569-.614-.5-.776s.387-.217.91-.176 1.244.2 2.179.374c.465.093.976.2 1.529.335l1.814.376c1.3.264 2.775.55 4.412.822s3.437.527 5.376.748 4.02.4 6.216.55c4.4.284 9.257.39 14.394.394 2.523-.025 4.972-.08 7.321-.289 2.357-.158 4.6-.51 6.731-.853 2.121-.406 4.135-.838 6-1.355s3.614-1.035 5.216-1.548c3.2-1.022 5.863-1.871 7.766-2.273 1.91-.417 3.028-.432 3.141-.105z" fill="#f04e23"/><path d="m189.213 356.5c.112-.138.605.026 1.435.459.414.217.912.5 1.489.849l2.018 1.148a76.63 76.63 0 0 0 13.188 6.153 60.864 60.864 0 0 0 9.631 2.475 70.451 70.451 0 0 0 11.371 1.01c4.058.058 8.285-.245 12.916-.442 1.176-.029 2.367-.059 3.66.018a11.447 11.447 0 0 1 4.379 1.014 19.8 19.8 0 0 1 3.436 2.244 9.8 9.8 0 0 1 1.655 1.752 5.986 5.986 0 0 1 1.158 2.82 5.536 5.536 0 0 1 -.071 1.751 6.088 6.088 0 0 1 -.577 1.5 7.585 7.585 0 0 1 -1.654 2.054 16.163 16.163 0 0 1 -3.5 2.316 42 42 0 0 1 -6.853 2.631 107.7 107.7 0 0 1 -13.018 2.91 183.279 183.279 0 0 1 -22.206 2.263 98.476 98.476 0 0 1 -15.064-.348 22.276 22.276 0 0 1 -4.075-.807c-.919-.3-1.359-.61-1.314-.775s.547-.218 1.462-.253l4-.17c3.473-.179 8.511-.573 14.714-1.28s13.578-1.713 21.631-3.3a119.063 119.063 0 0 0 12.381-3.063 39.062 39.062 0 0 0 6-2.368 11.514 11.514 0 0 0 2.376-1.557 4.962 4.962 0 0 0 .384-.387c.063-.112.2-.235.2-.306.1-.183.078-.168.068-.195a2.96 2.96 0 0 0 -1.023-1.266 15.463 15.463 0 0 0 -2.461-1.616 7.082 7.082 0 0 0 -2.369-.487c-1.006-.073-2.1-.065-3.187-.054-4.415.12-8.915.338-13.179.142a67.479 67.479 0 0 1 -12.082-1.567 56.908 56.908 0 0 1 -10.108-3.267 53.9 53.9 0 0 1 -13.013-7.9c-.683-.582-1.284-1.1-1.79-1.567q-.738-.728-1.214-1.259c-.632-.703-.907-1.137-.794-1.275z" fill="#f04e23"/><path d="m215.456 378.269c-.462.09-.972-.227-1.355-.895a5.087 5.087 0 0 1 .582-5.42l2.317.646a1.5 1.5 0 0 1 -1.4.7c-.455-.107-.78-.576-.94-1.251l2.313.644a9.024 9.024 0 0 1 -.452 4.436c-.255.596-.597 1.047-1.065 1.14z" fill="#f04e23"/><path d="m219.4 375.916a1.336 1.336 0 0 1 -1.312-.368 2.262 2.262 0 0 1 .247-3.246 1.336 1.336 0 0 1 1.353-.164 2.181 2.181 0 0 1 .964.9 1.718 1.718 0 0 1 -.164 2.144 2.178 2.178 0 0 1 -1.088.734z" fill="#f04e23"/><path d="m247.975 375.254a1.5 1.5 0 0 1 -.806 1.314 4.16 4.16 0 0 1 -.982.482 5.327 5.327 0 0 1 -1.291.275 3.869 3.869 0 0 1 -2.861-.8 1.628 1.628 0 0 1 -.561-.958.789.789 0 0 1 .235-.689 5.074 5.074 0 0 1 1.244-.6 5.132 5.132 0 0 1 1.659-.372 6.441 6.441 0 0 1 1.218 0 4.183 4.183 0 0 1 1.065.249c.618.245 1.026.628 1.08 1.099z" fill="#f04e23"/><path d="m278.708 390.516a1.432 1.432 0 0 1 .016 1.612 4.978 4.978 0 0 1 -1.877 1.985 4.177 4.177 0 0 1 -3.411.673l-.541-1.447a.981.981 0 0 1 .512 1.458l-.542-1.447a5.532 5.532 0 0 1 2.163-2.151 7.131 7.131 0 0 1 2.131-.929 1.628 1.628 0 0 1 1.549.246z" fill="#f04e23"/><path d="m170.044 385.7a1.629 1.629 0 0 1 1.486.328 6.678 6.678 0 0 1 2.423 3.46 1.624 1.624 0 0 1 -.2 1.508 1.4 1.4 0 0 1 -1.558.169 4.785 4.785 0 0 1 -2.843-4.059 1.4 1.4 0 0 1 .692-1.406z" fill="#f04e23"/><path d="m130.713 249s18.786-38.574 56-60c33-19 82.2-11.261 99 2 19 15 15 36 18 52 4.457 23.773-1 20 8 58 6.137 25.91 38 58 43 69s-19-80-20-112 14-59 0-86c-11.942-23.03-43-43-77-42s-68 17-77 27c-4.283 4.759-13 2-27 11-19.638 12.624-24 29-24 42 0 18.406-7.195 31.154-2 38 1.12 1.475 1.109 2.849 1 1z" fill="#f04e23"/><g fill="#ffb400"><path d="m309.066 203.031c-.172-.045-.306-.252-.4-.593a8.348 8.348 0 0 1 -.213-1.4c-.1-.6-.1-1.294-.251-2.1-.088-.8-.264-1.7-.468-2.672a28.243 28.243 0 0 0 -.915-3.115c-.212-.545-.4-1.113-.667-1.676q-.185-.426-.376-.864l-.44-.866a30.749 30.749 0 0 0 -2.11-3.534 36.917 36.917 0 0 0 -2.74-3.485 40.694 40.694 0 0 0 -3.181-3.117c-1.1-.957-2.21-1.821-3.3-2.606a52.387 52.387 0 0 0 -6.141-3.774c-1.834-.977-3.386-1.7-4.458-2.279s-1.668-1.023-1.6-1.382c.065-.34.8-.564 2.078-.565a20.115 20.115 0 0 1 5.317.836 31.173 31.173 0 0 1 7.382 3.178 32.748 32.748 0 0 1 7.738 6.264 31.711 31.711 0 0 1 3.133 4.169 27.049 27.049 0 0 1 2.212 4.344l.418 1.075.335 1.075a20.67 20.67 0 0 1 .526 2.089 21.012 21.012 0 0 1 .414 3.843 16.584 16.584 0 0 1 -.275 3.169 12.04 12.04 0 0 1 -.646 2.3 5.66 5.66 0 0 1 -.759 1.333c-.238.278-.441.398-.613.353z"/><path d="m316.5 218.93c-.66-.3-.287-2.525.546-5.868a70.593 70.593 0 0 0 2.363-12.7 30.494 30.494 0 0 0 -.366-6.776 29.3 29.3 0 0 0 -.65-2.892c-.261-.891-.536-1.718-.83-2.461s-.586-1.414-.86-2.006-.528-1.123-.728-1.549a6.811 6.811 0 0 1 -.416-1.1.732.732 0 0 1 .072-.651q.179-.2.638-.107a3.773 3.773 0 0 1 1.174.493 9.037 9.037 0 0 1 1.56 1.181 13.854 13.854 0 0 1 1.727 1.938 17.746 17.746 0 0 1 1.638 2.695 21.447 21.447 0 0 1 1.3 3.373 24.588 24.588 0 0 1 .887 8.168 31.112 31.112 0 0 1 -1.555 7.873 34.643 34.643 0 0 1 -2.563 5.859c-1.761 3.155-3.299 4.819-3.937 4.53z"/><path d="m387.745 345.764c-.156-.086-.239-.306-.261-.637a8.69 8.69 0 0 1 .089-1.31c.067-.543.164-1.183.245-1.921s.165-1.565.2-2.477a28.526 28.526 0 0 0 -.032-2.961 29.775 29.775 0 0 0 -.43-3.35 29.465 29.465 0 0 0 -.928-3.606 31.774 31.774 0 0 0 -1.492-3.7 40.685 40.685 0 0 0 -4.187-6.68c-1.5-1.964-2.994-3.664-4.286-5.1-2.59-2.86-4.271-4.73-3.844-5.329.394-.56 2.835.256 6.24 2.584a33.725 33.725 0 0 1 5.512 4.77 31.171 31.171 0 0 1 5.2 7.493 27.318 27.318 0 0 1 1.7 4.517 24.932 24.932 0 0 1 .8 4.42 23.284 23.284 0 0 1 0 4.068 19.732 19.732 0 0 1 -.648 3.482 15.616 15.616 0 0 1 -1.041 2.72 10.4 10.4 0 0 1 -1.156 1.861 4.413 4.413 0 0 1 -1.007.992c-.297.2-.519.25-.674.164z"/><path d="m377.783 347.985c-.667-.269-1-1.123-1.177-2.215a27.084 27.084 0 0 1 .278-7.821c.252-1.076.647-1.905 1.332-2.126.667-.217 1.524.269 2.237 1.391a9.248 9.248 0 0 1 -.34 9.543c-.79 1.068-1.679 1.492-2.33 1.228z"/><path d="m81.067 362.258c-.123.127-.388.106-.783-.058a7.449 7.449 0 0 1 -1.55-.923 18.964 18.964 0 0 1 -2.133-1.836 27.627 27.627 0 0 1 -2.479-2.8 34.392 34.392 0 0 1 -2.548-3.772 37.415 37.415 0 0 1 -2.289-4.724 36.741 36.741 0 0 1 -1.729-5.564 36.129 36.129 0 0 1 -.648-12.5 36.785 36.785 0 0 1 1.145-5.713 37.257 37.257 0 0 1 1.788-4.935 34.512 34.512 0 0 1 2.143-4.016 27.911 27.911 0 0 1 2.177-3.037 18.972 18.972 0 0 1 1.932-2.048 7.445 7.445 0 0 1 1.447-1.078c.376-.2.636-.252.773-.138s.142.385.034.792a13.117 13.117 0 0 1 -.64 1.615c-.306.659-.68 1.465-1.113 2.4s-.9 1.98-1.368 3.158-.94 2.476-1.394 3.878c-.42 1.415-.852 2.925-1.169 4.542a42.811 42.811 0 0 0 -.733 5.094 39.576 39.576 0 0 0 .568 10.949 42.639 42.639 0 0 0 1.256 4.99c.482 1.576 1.068 3.033 1.631 4.4.6 1.348 1.189 2.6 1.788 3.714s1.167 2.121 1.687 3 .984 1.648 1.356 2.272a13.074 13.074 0 0 1 .8 1.541c.154.398.176.669.051.797z"/><path d="m96.66 356.677c-.241.262-.685.306-1.3.145a7.247 7.247 0 0 1 -2.227-1.137 15.686 15.686 0 0 1 -2.673-2.433 19.232 19.232 0 0 1 -1.319-1.678 22.6 22.6 0 0 1 -1.219-1.942 22.058 22.058 0 0 1 -.988-2.07 19.241 19.241 0 0 1 -.712-2.012 15.7 15.7 0 0 1 -.624-3.56 7.241 7.241 0 0 1 .231-2.49c.192-.6.467-.955.817-1.018s.742.165 1.147.609a12.12 12.12 0 0 1 1.314 1.909c.463.806.981 1.753 1.529 2.8l1.8 3.353c.662 1.178 1.293 2.3 1.867 3.319.589 1.021 1.111 1.966 1.544 2.789a12.092 12.092 0 0 1 .908 2.128 1.374 1.374 0 0 1 -.095 1.288z"/><path d="m337.019 345.9c-.105.339-.751.478-1.856.428a11.117 11.117 0 0 1 -1.97-.261 20.922 20.922 0 0 1 -2.532-.65 27.461 27.461 0 0 1 -2.973-1.1c-1.063-.422-2.144-.985-3.286-1.578-.569-.3-1.125-.652-1.7-.994s-1.16-.712-1.731-1.118c-1.169-.773-2.3-1.677-3.46-2.611-1.114-.983-2.2-1.95-3.154-2.974q-.744-.741-1.392-1.519c-.435-.514-.876-1-1.266-1.514-.776-1.027-1.512-2-2.107-2.975a27.768 27.768 0 0 1 -1.58-2.747 21.238 21.238 0 0 1 -1.065-2.388 10.979 10.979 0 0 1 -.586-1.9c-.235-1.081-.207-1.74.11-1.9s.893.189 1.647.934c.371.376.8.846 1.3 1.381s1 1.178 1.621 1.842c.6.678 1.233 1.424 1.955 2.19.687.793 1.482 1.583 2.283 2.439.4.426.847.833 1.277 1.269s.878.872 1.353 1.3c.915.884 1.921 1.733 2.929 2.627 1.05.844 2.055 1.694 3.081 2.448q.747.594 1.5 1.116c.5.351.978.721 1.465 1.046.978.646 1.891 1.3 2.788 1.842.876.584 1.718 1.086 2.486 1.56.758.5 1.475.89 2.088 1.289s1.146.746 1.579 1.05c.861.62 1.302 1.128 1.196 1.468z"/><path d="m69.273 435.086c.287.2.349.716.138 1.481a8.624 8.624 0 0 1 -1.559 2.852 14.665 14.665 0 0 1 -3.6 3.242 16.642 16.642 0 0 1 -11.573 2.471 14.643 14.643 0 0 1 -4.61-1.49 8.622 8.622 0 0 1 -2.587-1.967c-.5-.613-.659-1.107-.478-1.408.383-.629 1.945-.337 4.2-.089a26.1 26.1 0 0 0 8.415-.257 26.063 26.063 0 0 0 7.787-3.2c1.953-1.148 3.26-2.052 3.867-1.635z"/><path d="m73.016 443.487a1.36 1.36 0 0 1 .758.77 2.724 2.724 0 0 1 .134 1.493 5.018 5.018 0 0 1 -.749 1.908 6.166 6.166 0 0 1 -.747.945 6.48 6.48 0 0 1 -2.1 1.484 6.218 6.218 0 0 1 -1.139.39 5.013 5.013 0 0 1 -2.049.069 2.713 2.713 0 0 1 -1.363-.624 1.356 1.356 0 0 1 -.473-.971 2.978 2.978 0 0 1 1.064-1.966 18.275 18.275 0 0 1 4.455-3.15 2.975 2.975 0 0 1 2.209-.348z"/><path d="m386.676 439.293c.043-.353.515-.656 1.287-.9.386-.116.849-.231 1.377-.384s1.119-.24 1.762-.431c.644-.16 1.34-.32 2.074-.551.74-.181 1.507-.467 2.316-.717.4-.129.805-.308 1.222-.456a12.716 12.716 0 0 0 1.257-.508c.855-.339 1.7-.779 2.579-1.195.848-.479 1.694-.914 2.464-1.418a12.557 12.557 0 0 0 1.14-.733c.361-.255.739-.479 1.077-.735.671-.517 1.347-.978 1.922-1.478.612-.467 1.144-.943 1.647-1.376.527-.415.946-.844 1.369-1.191s.79-.655 1.107-.9c.648-.488 1.168-.7 1.481-.53s.389.706.233 1.572a6.3 6.3 0 0 1 -.452 1.5 11.756 11.756 0 0 1 -.908 1.847 15.347 15.347 0 0 1 -1.413 2.06 20.6 20.6 0 0 1 -1.93 2.133c-.36.359-.767.681-1.169 1.03a12.569 12.569 0 0 1 -1.288.994 25.614 25.614 0 0 1 -2.909 1.8 25.923 25.923 0 0 1 -3.152 1.337 12.5 12.5 0 0 1 -1.556.477c-.516.128-1.015.274-1.515.361a20.744 20.744 0 0 1 -2.856.346 15.305 15.305 0 0 1 -2.5-.034 11.734 11.734 0 0 1 -2.033-.324 6.371 6.371 0 0 1 -1.486-.5c-.794-.371-1.19-.743-1.147-1.096z"/></g><path d="m205.713 177c-22.963 11.844-42 26-39 61s24.921 59.238 13 95c-11 33-38 11-54 22s4-142.826 4-142.826l48-42.174z" fill="#f04e23"/><path d="m156.266 215.97c-.352.048-.743-.484-1.152-1.531a9.2 9.2 0 0 1 -.547-1.943 16.941 16.941 0 0 1 -.356-2.644q-.036-.743-.075-1.555c-.015-.542.032-1.1.056-1.685a29.06 29.06 0 0 1 .43-3.708c.106-.65.288-1.3.443-1.972q.125-.5.252-1.016l.33-1.013a30.883 30.883 0 0 1 3.832-7.988l.583-.893.634-.832c.428-.542.821-1.09 1.262-1.58a29.1 29.1 0 0 1 2.622-2.656c.441-.384.846-.771 1.279-1.1s.858-.623 1.26-.915a17.071 17.071 0 0 1 2.284-1.377 9.34 9.34 0 0 1 1.859-.79c1.071-.336 1.731-.363 1.914-.059s-.122.912-.8 1.724c-.342.4-.769.861-1.236 1.421s-1.054 1.11-1.615 1.813l-.915 1.051c-.318.362-.61.777-.939 1.176-.671.786-1.288 1.707-1.975 2.634-.341.466-.637.983-.974 1.483l-.5.762-.462.81c-.66 1.067-1.225 2.235-1.84 3.411-.532 1.216-1.089 2.387-1.508 3.569q-.174.438-.343.868c-.094.293-.188.583-.28.87-.178.575-.4 1.13-.546 1.687-.293 1.116-.625 2.174-.818 3.19-.106.5-.246.993-.329 1.468s-.168.934-.246 1.371c-.2.878-.27 1.681-.405 2.4s-.237 1.337-.334 1.853c-.211 1.026-.492 1.648-.845 1.696z" fill="#ffb400"/><path d="m151.533 335.678c-.034-.174.117-.39.425-.637a15.3 15.3 0 0 1 1.355-.865q.435-.267.962-.557l1.1-.693a30.13 30.13 0 0 0 2.54-1.808 28.919 28.919 0 0 0 2.766-2.5 30.5 30.5 0 0 0 2.721-3.276 30.047 30.047 0 0 0 2.415-4.017 31.144 31.144 0 0 0 1.847-4.655 36.448 36.448 0 0 0 1.065-4.964 39.767 39.767 0 0 0 .385-4.776c.052-1.539-.025-3.013-.09-4.4-.1-1.384-.217-2.683-.367-3.871-.29-2.377-.6-4.326-.749-5.71a10.076 10.076 0 0 1 -.072-1.643c.034-.4.13-.639.3-.7s.394.054.678.341a7.294 7.294 0 0 1 1 1.36 26.665 26.665 0 0 1 2.408 5.574 36.008 36.008 0 0 1 1.645 8.962 33.959 33.959 0 0 1 -.119 5.471 33.226 33.226 0 0 1 -1.138 5.825 29.793 29.793 0 0 1 -2.317 5.535 28.25 28.25 0 0 1 -3.146 4.6 26.844 26.844 0 0 1 -3.6 3.523 23.176 23.176 0 0 1 -3.664 2.4 18.863 18.863 0 0 1 -3.326 1.368c-.511.14-.982.274-1.423.364-.448.073-.857.13-1.224.171a5.954 5.954 0 0 1 -1.721-.038c-.401-.084-.621-.209-.656-.384z" fill="#ffb400"/></svg>